<?xml version="1.0" encoding="UTF-8" standalone="no"?>
<!DOCTYPE svg PUBLIC "-//W3C//DTD SVG 1.1//EN"
 "http://www.w3.org/Graphics/SVG/1.1/DTD/svg11.dtd">
<!-- Generated by graphviz version 2.44.1 (20200629.0846)
 -->
<!-- Title: dependencies Pages: 1 -->
<svg width="504pt" height="284pt"
 viewBox="0.00 0.00 504.00 284.00" xmlns="http://www.w3.org/2000/svg" xmlns:xlink="http://www.w3.org/1999/xlink">
<g id="graph0" class="graph" transform="scale(1 1) rotate(0) translate(4 280)">
<title>dependencies</title>
<polygon fill="white" stroke="transparent" points="-4,4 -4,-280 500,-280 500,4 -4,4"/>
<text text-anchor="start" x="227.01" y="-42.4" font-family="sans-serif" font-weight="bold" font-size="14.00">Legend</text>
<polygon fill="#ffffb3" stroke="transparent" points="14,-10 14,-30 34,-30 34,-10 14,-10"/>
<text text-anchor="start" x="37.63" y="-15.4" font-family="sans-serif" font-size="14.00"> &#160;Declarations</text>
<polygon fill="#8dd3c7" stroke="transparent" points="127,-10 127,-30 147,-30 147,-10 127,-10"/>
<text text-anchor="start" x="150.73" y="-15.4" font-family="sans-serif" font-size="14.00"> &#160;Module</text>
<polygon fill="#80b1d3" stroke="transparent" points="213,-10 213,-30 233,-30 233,-10 213,-10"/>
<text text-anchor="start" x="236.78" y="-15.4" font-family="sans-serif" font-size="14.00"> &#160;Bootstrap</text>
<polygon fill="#fdb462" stroke="transparent" points="310,-10 310,-30 330,-30 330,-10 310,-10"/>
<text text-anchor="start" x="333.67" y="-15.4" font-family="sans-serif" font-size="14.00"> &#160;Providers</text>
<polygon fill="#fb8072" stroke="transparent" points="406,-10 406,-30 426,-30 426,-10 406,-10"/>
<text text-anchor="start" x="429.73" y="-15.4" font-family="sans-serif" font-size="14.00"> &#160;Exports</text>
<g id="clust1" class="cluster">
<title>cluster_UsersModule</title>
<polygon fill="none" stroke="black" stroke-dasharray="1,5" points="104,-70 104,-268 392,-268 392,-70 104,-70"/>
</g>
<g id="clust6" class="cluster">
<title>cluster_UsersModule_providers</title>
<polygon fill="none" stroke="black" points="112,-78 112,-130 384,-130 384,-78 112,-78"/>
</g>
<g id="clust4" class="cluster">
<title>cluster_UsersModule_exports</title>
<polygon fill="none" stroke="black" points="131,-208 131,-260 344,-260 344,-208 131,-208"/>
</g>
<!-- JwtStrategy  -->
<g id="node1" class="node">
<title>JwtStrategy </title>
<polygon fill="#fb8072" stroke="black" points="335.6,-252 250.4,-252 250.4,-216 335.6,-216 335.6,-252"/>
<text text-anchor="middle" x="293" y="-229.8" font-family="Times,serif" font-size="14.00">JwtStrategy </text>
</g>
<!-- UsersService  -->
<g id="node2" class="node">
<title>UsersService </title>
<polygon fill="#fb8072" stroke="black" points="232.85,-252 139.15,-252 139.15,-216 232.85,-216 232.85,-252"/>
<text text-anchor="middle" x="186" y="-229.8" font-family="Times,serif" font-size="14.00">UsersService </text>
</g>
<!-- UsersModule -->
<g id="node3" class="node">
<title>UsersModule</title>
<polygon fill="#8dd3c7" stroke="black" points="249.92,-187 246.92,-191 225.92,-191 222.92,-187 158.08,-187 158.08,-151 249.92,-151 249.92,-187"/>
<text text-anchor="middle" x="204" y="-164.8" font-family="Times,serif" font-size="14.00">UsersModule</text>
</g>
<!-- UsersModule&#45;&gt;JwtStrategy  -->
<g id="edge1" class="edge">
<title>UsersModule&#45;&gt;JwtStrategy </title>
<path fill="none" stroke="black" stroke-dasharray="5,2" d="M249.88,-175C253.79,-175 256.29,-175 256.29,-175 256.29,-175 256.29,-205.98 256.29,-205.98"/>
<polygon fill="black" stroke="black" points="252.79,-205.98 256.29,-215.98 259.79,-205.98 252.79,-205.98"/>
</g>
<!-- UsersModule&#45;&gt;UsersService  -->
<g id="edge2" class="edge">
<title>UsersModule&#45;&gt;UsersService </title>
<path fill="none" stroke="black" stroke-dasharray="5,2" d="M195.48,-187.11C195.48,-187.11 195.48,-205.99 195.48,-205.99"/>
<polygon fill="black" stroke="black" points="191.98,-205.99 195.48,-215.99 198.98,-205.99 191.98,-205.99"/>
</g>
<!-- JwtStrategy -->
<g id="node4" class="node">
<title>JwtStrategy</title>
<ellipse fill="#fdb462" stroke="black" cx="319" cy="-104" rx="56.76" ry="18"/>
<text text-anchor="middle" x="319" y="-99.8" font-family="Times,serif" font-size="14.00">JwtStrategy</text>
</g>
<!-- JwtStrategy&#45;&gt;UsersModule -->
<g id="edge3" class="edge">
<title>JwtStrategy&#45;&gt;UsersModule</title>
<path fill="none" stroke="black" d="M299.08,-121.07C299.08,-138.49 299.08,-163 299.08,-163 299.08,-163 259.87,-163 259.87,-163"/>
<polygon fill="black" stroke="black" points="259.87,-159.5 249.87,-163 259.87,-166.5 259.87,-159.5"/>
</g>
<!-- UsersService -->
<g id="node5" class="node">
<title>UsersService</title>
<ellipse fill="#fdb462" stroke="black" cx="182" cy="-104" rx="61.95" ry="18"/>
<text text-anchor="middle" x="182" y="-99.8" font-family="Times,serif" font-size="14.00">UsersService</text>
</g>
<!-- UsersService&#45;&gt;UsersModule -->
<g id="edge4" class="edge">
<title>UsersService&#45;&gt;UsersModule</title>
<path fill="none" stroke="black" d="M201.13,-121.42C201.13,-121.42 201.13,-140.62 201.13,-140.62"/>
<polygon fill="black" stroke="black" points="197.63,-140.62 201.13,-150.62 204.63,-140.62 197.63,-140.62"/>
</g>
</g>
</svg>
