<?xml version="1.0" encoding="UTF-8" standalone="no"?>
<!DOCTYPE svg PUBLIC "-//W3C//DTD SVG 1.1//EN"
 "http://www.w3.org/Graphics/SVG/1.1/DTD/svg11.dtd">
<!-- Generated by graphviz version 2.44.1 (20200629.0846)
 -->
<!-- Title: dependencies Pages: 1 -->
<svg width="504pt" height="211pt"
 viewBox="0.00 0.00 504.00 211.00" xmlns="http://www.w3.org/2000/svg" xmlns:xlink="http://www.w3.org/1999/xlink">
<g id="graph0" class="graph" transform="scale(1 1) rotate(0) translate(4 207)">
<title>dependencies</title>
<polygon fill="white" stroke="transparent" points="-4,4 -4,-207 500,-207 500,4 -4,4"/>
<text text-anchor="start" x="227.01" y="-42.4" font-family="sans-serif" font-weight="bold" font-size="14.00">Legend</text>
<polygon fill="#ffffb3" stroke="transparent" points="14,-10 14,-30 34,-30 34,-10 14,-10"/>
<text text-anchor="start" x="37.63" y="-15.4" font-family="sans-serif" font-size="14.00"> &#160;Declarations</text>
<polygon fill="#8dd3c7" stroke="transparent" points="127,-10 127,-30 147,-30 147,-10 127,-10"/>
<text text-anchor="start" x="150.73" y="-15.4" font-family="sans-serif" font-size="14.00"> &#160;Module</text>
<polygon fill="#80b1d3" stroke="transparent" points="213,-10 213,-30 233,-30 233,-10 213,-10"/>
<text text-anchor="start" x="236.78" y="-15.4" font-family="sans-serif" font-size="14.00"> &#160;Bootstrap</text>
<polygon fill="#fdb462" stroke="transparent" points="310,-10 310,-30 330,-30 330,-10 310,-10"/>
<text text-anchor="start" x="333.67" y="-15.4" font-family="sans-serif" font-size="14.00"> &#160;Providers</text>
<polygon fill="#fb8072" stroke="transparent" points="406,-10 406,-30 426,-30 426,-10 406,-10"/>
<text text-anchor="start" x="429.73" y="-15.4" font-family="sans-serif" font-size="14.00"> &#160;Exports</text>
<g id="clust1" class="cluster">
<title>cluster_NotesModule</title>
<polygon fill="none" stroke="black" stroke-dasharray="1,5" points="49,-70 49,-195 447,-195 447,-70 49,-70"/>
</g>
<g id="clust3" class="cluster">
<title>cluster_NotesModule_imports</title>
<polygon fill="none" stroke="black" points="207,-78 207,-130 439,-130 439,-78 207,-78"/>
</g>
<g id="clust6" class="cluster">
<title>cluster_NotesModule_providers</title>
<polygon fill="none" stroke="black" points="57,-78 57,-130 199,-130 199,-78 57,-78"/>
</g>
<!-- AnimalsModule -->
<g id="node1" class="node">
<title>AnimalsModule</title>
<polygon fill="#8dd3c7" stroke="black" points="431.49,-122 428.49,-126 407.49,-126 404.49,-122 324.51,-122 324.51,-86 431.49,-86 431.49,-122"/>
<text text-anchor="middle" x="378" y="-99.8" font-family="Times,serif" font-size="14.00">AnimalsModule</text>
</g>
<!-- NotesModule -->
<g id="node3" class="node">
<title>NotesModule</title>
<polygon fill="#8dd3c7" stroke="black" points="307.21,-187 304.21,-191 283.21,-191 280.21,-187 214.79,-187 214.79,-151 307.21,-151 307.21,-187"/>
<text text-anchor="middle" x="261" y="-164.8" font-family="Times,serif" font-size="14.00">NotesModule</text>
</g>
<!-- AnimalsModule&#45;&gt;NotesModule -->
<g id="edge1" class="edge">
<title>AnimalsModule&#45;&gt;NotesModule</title>
<path fill="none" stroke="black" d="M378,-122.11C378,-141.34 378,-169 378,-169 378,-169 317.24,-169 317.24,-169"/>
<polygon fill="black" stroke="black" points="317.24,-165.5 307.24,-169 317.24,-172.5 317.24,-165.5"/>
</g>
<!-- UsersModule -->
<g id="node2" class="node">
<title>UsersModule</title>
<polygon fill="#8dd3c7" stroke="black" points="306.92,-122 303.92,-126 282.92,-126 279.92,-122 215.08,-122 215.08,-86 306.92,-86 306.92,-122"/>
<text text-anchor="middle" x="261" y="-99.8" font-family="Times,serif" font-size="14.00">UsersModule</text>
</g>
<!-- UsersModule&#45;&gt;NotesModule -->
<g id="edge2" class="edge">
<title>UsersModule&#45;&gt;NotesModule</title>
<path fill="none" stroke="black" d="M261,-122.11C261,-122.11 261,-140.99 261,-140.99"/>
<polygon fill="black" stroke="black" points="257.5,-140.99 261,-150.99 264.5,-140.99 257.5,-140.99"/>
</g>
<!-- NotesService -->
<g id="node4" class="node">
<title>NotesService</title>
<ellipse fill="#fdb462" stroke="black" cx="128" cy="-104" rx="62.54" ry="18"/>
<text text-anchor="middle" x="128" y="-99.8" font-family="Times,serif" font-size="14.00">NotesService</text>
</g>
<!-- NotesService&#45;&gt;NotesModule -->
<g id="edge3" class="edge">
<title>NotesService&#45;&gt;NotesModule</title>
<path fill="none" stroke="black" d="M128,-122.11C128,-141.34 128,-169 128,-169 128,-169 204.86,-169 204.86,-169"/>
<polygon fill="black" stroke="black" points="204.86,-172.5 214.86,-169 204.86,-165.5 204.86,-172.5"/>
</g>
</g>
</svg>
