<?xml version="1.0" encoding="UTF-8" standalone="no"?>
<!DOCTYPE svg PUBLIC "-//W3C//DTD SVG 1.1//EN"
 "http://www.w3.org/Graphics/SVG/1.1/DTD/svg11.dtd">
<!-- Generated by graphviz version 2.44.1 (20200629.0846)
 -->
<!-- Title: dependencies Pages: 1 -->
<svg width="504pt" height="284pt"
 viewBox="0.00 0.00 504.00 284.00" xmlns="http://www.w3.org/2000/svg" xmlns:xlink="http://www.w3.org/1999/xlink">
<g id="graph0" class="graph" transform="scale(1 1) rotate(0) translate(4 280)">
<title>dependencies</title>
<polygon fill="white" stroke="transparent" points="-4,4 -4,-280 500,-280 500,4 -4,4"/>
<text text-anchor="start" x="227.01" y="-42.4" font-family="sans-serif" font-weight="bold" font-size="14.00">Legend</text>
<polygon fill="#ffffb3" stroke="transparent" points="14,-10 14,-30 34,-30 34,-10 14,-10"/>
<text text-anchor="start" x="37.63" y="-15.4" font-family="sans-serif" font-size="14.00"> &#160;Declarations</text>
<polygon fill="#8dd3c7" stroke="transparent" points="127,-10 127,-30 147,-30 147,-10 127,-10"/>
<text text-anchor="start" x="150.73" y="-15.4" font-family="sans-serif" font-size="14.00"> &#160;Module</text>
<polygon fill="#80b1d3" stroke="transparent" points="213,-10 213,-30 233,-30 233,-10 213,-10"/>
<text text-anchor="start" x="236.78" y="-15.4" font-family="sans-serif" font-size="14.00"> &#160;Bootstrap</text>
<polygon fill="#fdb462" stroke="transparent" points="310,-10 310,-30 330,-30 330,-10 310,-10"/>
<text text-anchor="start" x="333.67" y="-15.4" font-family="sans-serif" font-size="14.00"> &#160;Providers</text>
<polygon fill="#fb8072" stroke="transparent" points="406,-10 406,-30 426,-30 426,-10 406,-10"/>
<text text-anchor="start" x="429.73" y="-15.4" font-family="sans-serif" font-size="14.00"> &#160;Exports</text>
<g id="clust1" class="cluster">
<title>cluster_AnimalsModule</title>
<polygon fill="none" stroke="black" stroke-dasharray="1,5" points="101,-70 101,-268 395,-268 395,-70 101,-70"/>
</g>
<g id="clust4" class="cluster">
<title>cluster_AnimalsModule_exports</title>
<polygon fill="none" stroke="black" points="176,-208 176,-260 300,-260 300,-208 176,-208"/>
</g>
<g id="clust6" class="cluster">
<title>cluster_AnimalsModule_providers</title>
<polygon fill="none" stroke="black" points="225,-78 225,-130 387,-130 387,-78 225,-78"/>
</g>
<g id="clust3" class="cluster">
<title>cluster_AnimalsModule_imports</title>
<polygon fill="none" stroke="black" points="109,-78 109,-130 217,-130 217,-78 109,-78"/>
</g>
<!-- UsersModule -->
<g id="node1" class="node">
<title>UsersModule</title>
<polygon fill="#8dd3c7" stroke="black" points="208.92,-122 205.92,-126 184.92,-126 181.92,-122 117.08,-122 117.08,-86 208.92,-86 208.92,-122"/>
<text text-anchor="middle" x="163" y="-99.8" font-family="Times,serif" font-size="14.00">UsersModule</text>
</g>
<!-- AnimalsModule -->
<g id="node2" class="node">
<title>AnimalsModule</title>
<polygon fill="#8dd3c7" stroke="black" points="291.49,-187 288.49,-191 267.49,-191 264.49,-187 184.51,-187 184.51,-151 291.49,-151 291.49,-187"/>
<text text-anchor="middle" x="238" y="-164.8" font-family="Times,serif" font-size="14.00">AnimalsModule</text>
</g>
<!-- UsersModule&#45;&gt;AnimalsModule -->
<g id="edge1" class="edge">
<title>UsersModule&#45;&gt;AnimalsModule</title>
<path fill="none" stroke="black" d="M196.61,-122.11C196.61,-122.11 196.61,-140.99 196.61,-140.99"/>
<polygon fill="black" stroke="black" points="193.11,-140.99 196.61,-150.99 200.11,-140.99 193.11,-140.99"/>
</g>
<!-- AnimalsService  -->
<g id="node3" class="node">
<title>AnimalsService </title>
<polygon fill="#fb8072" stroke="black" points="292.42,-252 183.58,-252 183.58,-216 292.42,-216 292.42,-252"/>
<text text-anchor="middle" x="238" y="-229.8" font-family="Times,serif" font-size="14.00">AnimalsService </text>
</g>
<!-- AnimalsModule&#45;&gt;AnimalsService  -->
<g id="edge2" class="edge">
<title>AnimalsModule&#45;&gt;AnimalsService </title>
<path fill="none" stroke="black" stroke-dasharray="5,2" d="M238,-187.11C238,-187.11 238,-205.99 238,-205.99"/>
<polygon fill="black" stroke="black" points="234.5,-205.99 238,-215.99 241.5,-205.99 234.5,-205.99"/>
</g>
<!-- AnimalsService -->
<g id="node4" class="node">
<title>AnimalsService</title>
<ellipse fill="#fdb462" stroke="black" cx="306" cy="-104" rx="72.93" ry="18"/>
<text text-anchor="middle" x="306" y="-99.8" font-family="Times,serif" font-size="14.00">AnimalsService</text>
</g>
<!-- AnimalsService&#45;&gt;AnimalsModule -->
<g id="edge3" class="edge">
<title>AnimalsService&#45;&gt;AnimalsModule</title>
<path fill="none" stroke="black" d="M262.39,-118.43C262.39,-118.43 262.39,-140.89 262.39,-140.89"/>
<polygon fill="black" stroke="black" points="258.89,-140.89 262.39,-150.89 265.89,-140.89 258.89,-140.89"/>
</g>
</g>
</svg>
