<?xml version="1.0" encoding="UTF-8" standalone="no"?>
<!DOCTYPE svg PUBLIC "-//W3C//DTD SVG 1.1//EN"
 "http://www.w3.org/Graphics/SVG/1.1/DTD/svg11.dtd">
<!-- Generated by graphviz version 2.44.1 (20200629.0846)
 -->
<!-- Title: dependencies Pages: 1 -->
<svg width="511pt" height="211pt"
 viewBox="0.00 0.00 511.00 211.00" xmlns="http://www.w3.org/2000/svg" xmlns:xlink="http://www.w3.org/1999/xlink">
<g id="graph0" class="graph" transform="scale(1 1) rotate(0) translate(4 207)">
<title>dependencies</title>
<polygon fill="white" stroke="transparent" points="-4,4 -4,-207 507,-207 507,4 -4,4"/>
<text text-anchor="start" x="230.51" y="-42.4" font-family="sans-serif" font-weight="bold" font-size="14.00">Legend</text>
<polygon fill="#ffffb3" stroke="transparent" points="17.5,-10 17.5,-30 37.5,-30 37.5,-10 17.5,-10"/>
<text text-anchor="start" x="41.13" y="-15.4" font-family="sans-serif" font-size="14.00"> &#160;Declarations</text>
<polygon fill="#8dd3c7" stroke="transparent" points="130.5,-10 130.5,-30 150.5,-30 150.5,-10 130.5,-10"/>
<text text-anchor="start" x="154.23" y="-15.4" font-family="sans-serif" font-size="14.00"> &#160;Module</text>
<polygon fill="#80b1d3" stroke="transparent" points="216.5,-10 216.5,-30 236.5,-30 236.5,-10 216.5,-10"/>
<text text-anchor="start" x="240.28" y="-15.4" font-family="sans-serif" font-size="14.00"> &#160;Bootstrap</text>
<polygon fill="#fdb462" stroke="transparent" points="313.5,-10 313.5,-30 333.5,-30 333.5,-10 313.5,-10"/>
<text text-anchor="start" x="337.17" y="-15.4" font-family="sans-serif" font-size="14.00"> &#160;Providers</text>
<polygon fill="#fb8072" stroke="transparent" points="409.5,-10 409.5,-30 429.5,-30 429.5,-10 409.5,-10"/>
<text text-anchor="start" x="433.23" y="-15.4" font-family="sans-serif" font-size="14.00"> &#160;Exports</text>
<g id="clust1" class="cluster">
<title>cluster_AppModule</title>
<polygon fill="none" stroke="black" stroke-dasharray="1,5" points="8,-70 8,-195 495,-195 495,-70 8,-70"/>
</g>
<g id="clust3" class="cluster">
<title>cluster_AppModule_imports</title>
<polygon fill="none" stroke="black" points="16,-78 16,-130 487,-130 487,-78 16,-78"/>
</g>
<!-- AnimalsModule -->
<g id="node1" class="node">
<title>AnimalsModule</title>
<polygon fill="#8dd3c7" stroke="black" points="479.49,-122 476.49,-126 455.49,-126 452.49,-122 372.51,-122 372.51,-86 479.49,-86 479.49,-122"/>
<text text-anchor="middle" x="426" y="-99.8" font-family="Times,serif" font-size="14.00">AnimalsModule</text>
</g>
<!-- AppModule -->
<g id="node5" class="node">
<title>AppModule</title>
<polygon fill="#8dd3c7" stroke="black" points="294.66,-187 291.66,-191 270.66,-191 267.66,-187 211.34,-187 211.34,-151 294.66,-151 294.66,-187"/>
<text text-anchor="middle" x="253" y="-164.8" font-family="Times,serif" font-size="14.00">AppModule</text>
</g>
<!-- AnimalsModule&#45;&gt;AppModule -->
<g id="edge1" class="edge">
<title>AnimalsModule&#45;&gt;AppModule</title>
<path fill="none" stroke="black" d="M426,-122.11C426,-141.34 426,-169 426,-169 426,-169 304.88,-169 304.88,-169"/>
<polygon fill="black" stroke="black" points="304.88,-165.5 294.88,-169 304.88,-172.5 304.88,-165.5"/>
</g>
<!-- NotesModule -->
<g id="node2" class="node">
<title>NotesModule</title>
<polygon fill="#8dd3c7" stroke="black" points="354.21,-122 351.21,-126 330.21,-126 327.21,-122 261.79,-122 261.79,-86 354.21,-86 354.21,-122"/>
<text text-anchor="middle" x="308" y="-99.8" font-family="Times,serif" font-size="14.00">NotesModule</text>
</g>
<!-- NotesModule&#45;&gt;AppModule -->
<g id="edge2" class="edge">
<title>NotesModule&#45;&gt;AppModule</title>
<path fill="none" stroke="black" d="M278.36,-122.11C278.36,-122.11 278.36,-140.99 278.36,-140.99"/>
<polygon fill="black" stroke="black" points="274.86,-140.99 278.36,-150.99 281.86,-140.99 274.86,-140.99"/>
</g>
<!-- UsersModule -->
<g id="node3" class="node">
<title>UsersModule</title>
<polygon fill="#8dd3c7" stroke="black" points="243.92,-122 240.92,-126 219.92,-126 216.92,-122 152.08,-122 152.08,-86 243.92,-86 243.92,-122"/>
<text text-anchor="middle" x="198" y="-99.8" font-family="Times,serif" font-size="14.00">UsersModule</text>
</g>
<!-- UsersModule&#45;&gt;AppModule -->
<g id="edge3" class="edge">
<title>UsersModule&#45;&gt;AppModule</title>
<path fill="none" stroke="black" d="M227.44,-122.11C227.44,-122.11 227.44,-140.99 227.44,-140.99"/>
<polygon fill="black" stroke="black" points="223.94,-140.99 227.44,-150.99 230.94,-140.99 223.94,-140.99"/>
</g>
<!-- VaccinesModule -->
<g id="node4" class="node">
<title>VaccinesModule</title>
<polygon fill="#8dd3c7" stroke="black" points="134.35,-122 131.35,-126 110.35,-126 107.35,-122 23.65,-122 23.65,-86 134.35,-86 134.35,-122"/>
<text text-anchor="middle" x="79" y="-99.8" font-family="Times,serif" font-size="14.00">VaccinesModule</text>
</g>
<!-- VaccinesModule&#45;&gt;AppModule -->
<g id="edge4" class="edge">
<title>VaccinesModule&#45;&gt;AppModule</title>
<path fill="none" stroke="black" d="M79,-122.11C79,-141.34 79,-169 79,-169 79,-169 201.32,-169 201.32,-169"/>
<polygon fill="black" stroke="black" points="201.32,-172.5 211.32,-169 201.32,-165.5 201.32,-172.5"/>
</g>
</g>
</svg>
