<svg xmlns="http://www.w3.org/2000/svg" xmlns:xlink="http://www.w3.org/1999/xlink" version="1.1" width="591px" height="561px" viewBox="-0.5 -0.5 591 561" style="background-color: rgb(255, 255, 255);"><defs><clipPath id="mx-clip-4-30-132-30-0"><rect x="4" y="30" width="132" height="30"/></clipPath><clipPath id="mx-clip-4-60-132-30-0"><rect x="4" y="60" width="132" height="30"/></clipPath><clipPath id="mx-clip-4-90-132-30-0"><rect x="4" y="90" width="132" height="30"/></clipPath><clipPath id="mx-clip-4-120-132-30-0"><rect x="4" y="120" width="132" height="30"/></clipPath><clipPath id="mx-clip-4-150-132-30-0"><rect x="4" y="150" width="132" height="30"/></clipPath><clipPath id="mx-clip-4-180-132-30-0"><rect x="4" y="180" width="132" height="30"/></clipPath><clipPath id="mx-clip-4-210-132-30-0"><rect x="4" y="210" width="132" height="30"/></clipPath><clipPath id="mx-clip-214-30-132-30-0"><rect x="214" y="30" width="132" height="30"/></clipPath><clipPath id="mx-clip-214-60-132-30-0"><rect x="214" y="60" width="132" height="30"/></clipPath><clipPath id="mx-clip-214-90-132-30-0"><rect x="214" y="90" width="132" height="30"/></clipPath><clipPath id="mx-clip-214-120-132-30-0"><rect x="214" y="120" width="132" height="30"/></clipPath><clipPath id="mx-clip-214-150-132-30-0"><rect x="214" y="150" width="132" height="30"/></clipPath><clipPath id="mx-clip-214-180-132-30-0"><rect x="214" y="180" width="132" height="30"/></clipPath><clipPath id="mx-clip-154-350-267-30-0"><rect x="154" y="350" width="267" height="30"/></clipPath><clipPath id="mx-clip-154-380-267-30-0"><rect x="154" y="380" width="267" height="30"/></clipPath><clipPath id="mx-clip-154-410-267-30-0"><rect x="154" y="410" width="267" height="30"/></clipPath><clipPath id="mx-clip-154-440-267-30-0"><rect x="154" y="440" width="267" height="30"/></clipPath><clipPath id="mx-clip-154-470-267-30-0"><rect x="154" y="470" width="267" height="30"/></clipPath><clipPath id="mx-clip-154-500-267-30-0"><rect x="154" y="500" width="267" height="30"/></clipPath><clipPath id="mx-clip-154-530-267-30-0"><rect x="154" y="530" width="267" height="30"/></clipPath><clipPath id="mx-clip-454-30-132-30-0"><rect x="454" y="30" width="132" height="30"/></clipPath><clipPath id="mx-clip-454-60-132-30-0"><rect x="454" y="60" width="132" height="30"/></clipPath><clipPath id="mx-clip-454-90-132-30-0"><rect x="454" y="90" width="132" height="30"/></clipPath><clipPath id="mx-clip-454-120-132-30-0"><rect x="454" y="120" width="132" height="30"/></clipPath><clipPath id="mx-clip-454-150-132-30-0"><rect x="454" y="150" width="132" height="30"/></clipPath><clipPath id="mx-clip-454-180-132-30-0"><rect x="454" y="180" width="132" height="30"/></clipPath></defs><g><path d="M 0 30 L 0 0 L 140 0 L 140 30" fill="rgb(255, 255, 255)" stroke="rgb(0, 0, 0)" stroke-miterlimit="10" pointer-events="all"/><path d="M 0 30 L 0 240 L 140 240 L 140 30" fill="none" stroke="rgb(0, 0, 0)" stroke-miterlimit="10" pointer-events="none"/><path d="M 0 30 L 140 30" fill="none" stroke="rgb(0, 0, 0)" stroke-miterlimit="10" pointer-events="none"/><g fill="rgb(0, 0, 0)" font-family="Helvetica" pointer-events="none" text-anchor="middle" font-size="12px"><text x="69.5" y="19.5">user</text></g><g fill="rgb(0, 0, 0)" font-family="Helvetica" pointer-events="none" clip-path="url(#mx-clip-4-30-132-30-0)" font-size="12px"><text x="5.5" y="49.5">id: uuid</text></g><g fill="rgb(0, 0, 0)" font-family="Helvetica" pointer-events="none" clip-path="url(#mx-clip-4-60-132-30-0)" font-size="12px"><text x="5.5" y="79.5">username: string</text></g><g fill="rgb(0, 0, 0)" font-family="Helvetica" pointer-events="none" clip-path="url(#mx-clip-4-90-132-30-0)" font-size="12px"><text x="5.5" y="109.5">email: string</text></g><g fill="rgb(0, 0, 0)" font-family="Helvetica" pointer-events="none" clip-path="url(#mx-clip-4-120-132-30-0)" font-size="12px"><text x="5.5" y="139.5">password: string</text></g><g fill="rgb(0, 0, 0)" font-family="Helvetica" pointer-events="none" clip-path="url(#mx-clip-4-150-132-30-0)" font-size="12px"><text x="5.5" y="169.5">signature: string</text></g><g fill="rgb(0, 0, 0)" font-family="Helvetica" pointer-events="none" clip-path="url(#mx-clip-4-180-132-30-0)" font-size="12px"><text x="5.5" y="199.5">is_active: boolean</text></g><g fill="rgb(0, 0, 0)" font-family="Helvetica" pointer-events="none" clip-path="url(#mx-clip-4-210-132-30-0)" font-size="12px"><text x="5.5" y="229.5">created_at: timestamp</text></g><path d="M 210 30 L 210 0 L 350 0 L 350 30" fill="rgb(255, 255, 255)" stroke="rgb(0, 0, 0)" stroke-miterlimit="10" pointer-events="none"/><path d="M 210 30 L 210 210 L 350 210 L 350 30" fill="none" stroke="rgb(0, 0, 0)" stroke-miterlimit="10" pointer-events="none"/><path d="M 210 30 L 350 30" fill="none" stroke="rgb(0, 0, 0)" stroke-miterlimit="10" pointer-events="none"/><g fill="rgb(0, 0, 0)" font-family="Helvetica" pointer-events="none" text-anchor="middle" font-size="12px"><text x="279.5" y="19.5">pet</text></g><g fill="rgb(0, 0, 0)" font-family="Helvetica" pointer-events="none" clip-path="url(#mx-clip-214-30-132-30-0)" font-size="12px"><text x="215.5" y="49.5">id: uuid</text></g><g fill="rgb(0, 0, 0)" font-family="Helvetica" pointer-events="none" clip-path="url(#mx-clip-214-60-132-30-0)" font-size="12px"><text x="215.5" y="79.5">name: string</text></g><g fill="rgb(0, 0, 0)" font-family="Helvetica" pointer-events="none" clip-path="url(#mx-clip-214-90-132-30-0)" font-size="12px"><text x="215.5" y="109.5">birth_date: timestamp</text></g><g fill="rgb(0, 0, 0)" font-family="Helvetica" pointer-events="none" clip-path="url(#mx-clip-214-120-132-30-0)" font-size="12px"><text x="215.5" y="139.5">breed: string</text></g><g fill="rgb(0, 0, 0)" font-family="Helvetica" pointer-events="none" clip-path="url(#mx-clip-214-150-132-30-0)" font-size="12px"><text x="215.5" y="169.5">species: string</text></g><g fill="rgb(0, 0, 0)" font-family="Helvetica" pointer-events="none" clip-path="url(#mx-clip-214-180-132-30-0)" font-size="12px"><text x="215.5" y="199.5">created_at: timestamp</text></g><path d="M 150 350 L 150 320 L 425 320 L 425 350" fill="rgb(255, 255, 255)" stroke="rgb(0, 0, 0)" stroke-miterlimit="10" pointer-events="none"/><path d="M 150 350 L 150 560 L 425 560 L 425 350" fill="none" stroke="rgb(0, 0, 0)" stroke-miterlimit="10" pointer-events="none"/><path d="M 150 350 L 425 350" fill="none" stroke="rgb(0, 0, 0)" stroke-miterlimit="10" pointer-events="none"/><g fill="rgb(0, 0, 0)" font-family="Helvetica" pointer-events="none" text-anchor="middle" font-size="12px"><text x="287" y="339.5">vaccine</text></g><g fill="rgb(0, 0, 0)" font-family="Helvetica" pointer-events="none" clip-path="url(#mx-clip-154-350-267-30-0)" font-size="12px"><text x="155.5" y="369.5">id: uuid</text></g><g fill="rgb(0, 0, 0)" font-family="Helvetica" pointer-events="none" clip-path="url(#mx-clip-154-380-267-30-0)" font-size="12px"><text x="155.5" y="399.5">breed: string</text></g><g fill="rgb(0, 0, 0)" font-family="Helvetica" pointer-events="none" clip-path="url(#mx-clip-154-410-267-30-0)" font-size="12px"><text x="155.5" y="429.5">species: string</text></g><g fill="rgb(0, 0, 0)" font-family="Helvetica" pointer-events="none" clip-path="url(#mx-clip-154-440-267-30-0)" font-size="12px"><text x="155.5" y="459.5">dosage_number: number</text></g><g fill="rgb(0, 0, 0)" font-family="Helvetica" pointer-events="none" clip-path="url(#mx-clip-154-470-267-30-0)" font-size="12px"><text x="155.5" y="489.5">age_in_months: number</text></g><g fill="rgb(0, 0, 0)" font-family="Helvetica" pointer-events="none" clip-path="url(#mx-clip-154-500-267-30-0)" font-size="12px"><text x="155.5" y="519.5">time_between_dosages_in_months: number</text></g><g fill="rgb(0, 0, 0)" font-family="Helvetica" pointer-events="none" clip-path="url(#mx-clip-154-530-267-30-0)" font-size="12px"><text x="155.5" y="549.5">created_at: timestamp</text></g><path d="M 450 30 L 450 0 L 590 0 L 590 30" fill="rgb(255, 255, 255)" stroke="rgb(0, 0, 0)" stroke-miterlimit="10" pointer-events="none"/><path d="M 450 30 L 450 210 L 590 210 L 590 30" fill="none" stroke="rgb(0, 0, 0)" stroke-miterlimit="10" pointer-events="none"/><path d="M 450 30 L 590 30" fill="none" stroke="rgb(0, 0, 0)" stroke-miterlimit="10" pointer-events="none"/><g fill="rgb(0, 0, 0)" font-family="Helvetica" pointer-events="none" text-anchor="middle" font-size="12px"><text x="519.5" y="19.5">note</text></g><g fill="rgb(0, 0, 0)" font-family="Helvetica" pointer-events="none" clip-path="url(#mx-clip-454-30-132-30-0)" font-size="12px"><text x="455.5" y="49.5">id: uuid</text></g><g fill="rgb(0, 0, 0)" font-family="Helvetica" pointer-events="none" clip-path="url(#mx-clip-454-60-132-30-0)" font-size="12px"><text x="455.5" y="79.5">title: string</text></g><g fill="rgb(0, 0, 0)" font-family="Helvetica" pointer-events="none" clip-path="url(#mx-clip-454-90-132-30-0)" font-size="12px"><text x="455.5" y="109.5">description: string</text></g><g fill="rgb(0, 0, 0)" font-family="Helvetica" pointer-events="none" clip-path="url(#mx-clip-454-120-132-30-0)" font-size="12px"><text x="455.5" y="139.5">created_at: timestamp</text></g><g fill="rgb(0, 0, 0)" font-family="Helvetica" pointer-events="none" clip-path="url(#mx-clip-454-150-132-30-0)" font-size="12px"><text x="455.5" y="169.5">trigger: timestamp</text></g><g fill="rgb(0, 0, 0)" font-family="Helvetica" pointer-events="none" clip-path="url(#mx-clip-454-180-132-30-0)" font-size="12px"><text x="455.5" y="199.5">frequency: list</text></g><path d="M 140 105 L 170 105 L 180 105 L 210 105" fill="none" stroke="rgb(0, 0, 0)" stroke-miterlimit="10" pointer-events="none"/><ellipse cx="198" cy="105" rx="3" ry="3" fill="#ffffff" stroke="rgb(0, 0, 0)" pointer-events="none"/><path d="M 210 101 L 202 105 L 210 109" fill="none" stroke="rgb(0, 0, 0)" stroke-miterlimit="10" pointer-events="none"/><path d="M 278.46 209.79 L 278.47 265 L 287.53 265 L 287.5 320" fill="none" stroke="rgb(0, 0, 0)" stroke-miterlimit="10" pointer-events="none"/><ellipse cx="287.51" cy="308" rx="3" ry="3" fill="#ffffff" stroke="rgb(0, 0, 0)" pointer-events="none"/><path d="M 291.5 320 L 287.5 312 L 283.5 320" fill="none" stroke="rgb(0, 0, 0)" stroke-miterlimit="10" pointer-events="none"/><path d="M 350 105 L 380 105 L 420 105 L 450 105" fill="none" stroke="rgb(0, 0, 0)" stroke-miterlimit="10" pointer-events="none"/><ellipse cx="438" cy="105" rx="3" ry="3" fill="#ffffff" stroke="rgb(0, 0, 0)" pointer-events="none"/><path d="M 450 101 L 442 105 L 450 109" fill="none" stroke="rgb(0, 0, 0)" stroke-miterlimit="10" pointer-events="none"/></g></svg>