<?xml version="1.0" encoding="UTF-8" standalone="no"?>
<!DOCTYPE svg PUBLIC "-//W3C//DTD SVG 1.1//EN"
 "http://www.w3.org/Graphics/SVG/1.1/DTD/svg11.dtd">
<!-- Generated by graphviz version 2.44.1 (20200629.0846)
 -->
<!-- Title: dependencies Pages: 1 -->
<svg width="504pt" height="284pt"
 viewBox="0.00 0.00 504.00 284.00" xmlns="http://www.w3.org/2000/svg" xmlns:xlink="http://www.w3.org/1999/xlink">
<g id="graph0" class="graph" transform="scale(1 1) rotate(0) translate(4 280)">
<title>dependencies</title>
<polygon fill="white" stroke="transparent" points="-4,4 -4,-280 500,-280 500,4 -4,4"/>
<text text-anchor="start" x="227.01" y="-42.4" font-family="sans-serif" font-weight="bold" font-size="14.00">Legend</text>
<polygon fill="#ffffb3" stroke="transparent" points="14,-10 14,-30 34,-30 34,-10 14,-10"/>
<text text-anchor="start" x="37.63" y="-15.4" font-family="sans-serif" font-size="14.00"> &#160;Declarations</text>
<polygon fill="#8dd3c7" stroke="transparent" points="127,-10 127,-30 147,-30 147,-10 127,-10"/>
<text text-anchor="start" x="150.73" y="-15.4" font-family="sans-serif" font-size="14.00"> &#160;Module</text>
<polygon fill="#80b1d3" stroke="transparent" points="213,-10 213,-30 233,-30 233,-10 213,-10"/>
<text text-anchor="start" x="236.78" y="-15.4" font-family="sans-serif" font-size="14.00"> &#160;Bootstrap</text>
<polygon fill="#fdb462" stroke="transparent" points="310,-10 310,-30 330,-30 330,-10 310,-10"/>
<text text-anchor="start" x="333.67" y="-15.4" font-family="sans-serif" font-size="14.00"> &#160;Providers</text>
<polygon fill="#fb8072" stroke="transparent" points="406,-10 406,-30 426,-30 426,-10 406,-10"/>
<text text-anchor="start" x="429.73" y="-15.4" font-family="sans-serif" font-size="14.00"> &#160;Exports</text>
<g id="clust1" class="cluster">
<title>cluster_VaccinesModule</title>
<polygon fill="none" stroke="black" stroke-dasharray="1,5" points="37,-70 37,-268 459,-268 459,-70 37,-70"/>
</g>
<g id="clust3" class="cluster">
<title>cluster_VaccinesModule_imports</title>
<polygon fill="none" stroke="black" points="219,-78 219,-130 451,-130 451,-78 219,-78"/>
</g>
<g id="clust4" class="cluster">
<title>cluster_VaccinesModule_exports</title>
<polygon fill="none" stroke="black" points="209,-208 209,-260 337,-260 337,-208 209,-208"/>
</g>
<g id="clust6" class="cluster">
<title>cluster_VaccinesModule_providers</title>
<polygon fill="none" stroke="black" points="45,-78 45,-130 211,-130 211,-78 45,-78"/>
</g>
<!-- AnimalsModule -->
<g id="node1" class="node">
<title>AnimalsModule</title>
<polygon fill="#8dd3c7" stroke="black" points="443.49,-122 440.49,-126 419.49,-126 416.49,-122 336.51,-122 336.51,-86 443.49,-86 443.49,-122"/>
<text text-anchor="middle" x="390" y="-99.8" font-family="Times,serif" font-size="14.00">AnimalsModule</text>
</g>
<!-- VaccinesModule -->
<g id="node3" class="node">
<title>VaccinesModule</title>
<polygon fill="#8dd3c7" stroke="black" points="328.35,-187 325.35,-191 304.35,-191 301.35,-187 217.65,-187 217.65,-151 328.35,-151 328.35,-187"/>
<text text-anchor="middle" x="273" y="-164.8" font-family="Times,serif" font-size="14.00">VaccinesModule</text>
</g>
<!-- AnimalsModule&#45;&gt;VaccinesModule -->
<g id="edge1" class="edge">
<title>AnimalsModule&#45;&gt;VaccinesModule</title>
<path fill="none" stroke="black" d="M336.38,-104C328.82,-104 323.57,-104 323.57,-104 323.57,-104 323.57,-140.89 323.57,-140.89"/>
<polygon fill="black" stroke="black" points="320.07,-140.89 323.57,-150.89 327.07,-140.89 320.07,-140.89"/>
</g>
<!-- UsersModule -->
<g id="node2" class="node">
<title>UsersModule</title>
<polygon fill="#8dd3c7" stroke="black" points="318.92,-122 315.92,-126 294.92,-126 291.92,-122 227.08,-122 227.08,-86 318.92,-86 318.92,-122"/>
<text text-anchor="middle" x="273" y="-99.8" font-family="Times,serif" font-size="14.00">UsersModule</text>
</g>
<!-- UsersModule&#45;&gt;VaccinesModule -->
<g id="edge2" class="edge">
<title>UsersModule&#45;&gt;VaccinesModule</title>
<path fill="none" stroke="black" d="M273,-122.11C273,-122.11 273,-140.99 273,-140.99"/>
<polygon fill="black" stroke="black" points="269.5,-140.99 273,-150.99 276.5,-140.99 269.5,-140.99"/>
</g>
<!-- VaccinesService  -->
<g id="node4" class="node">
<title>VaccinesService </title>
<polygon fill="#fb8072" stroke="black" points="329.28,-252 216.72,-252 216.72,-216 329.28,-216 329.28,-252"/>
<text text-anchor="middle" x="273" y="-229.8" font-family="Times,serif" font-size="14.00">VaccinesService </text>
</g>
<!-- VaccinesModule&#45;&gt;VaccinesService  -->
<g id="edge3" class="edge">
<title>VaccinesModule&#45;&gt;VaccinesService </title>
<path fill="none" stroke="black" stroke-dasharray="5,2" d="M273,-187.11C273,-187.11 273,-205.99 273,-205.99"/>
<polygon fill="black" stroke="black" points="269.5,-205.99 273,-215.99 276.5,-205.99 269.5,-205.99"/>
</g>
<!-- VaccinesService -->
<g id="node5" class="node">
<title>VaccinesService</title>
<ellipse fill="#fdb462" stroke="black" cx="128" cy="-104" rx="75.26" ry="18"/>
<text text-anchor="middle" x="128" y="-99.8" font-family="Times,serif" font-size="14.00">VaccinesService</text>
</g>
<!-- VaccinesService&#45;&gt;VaccinesModule -->
<g id="edge4" class="edge">
<title>VaccinesService&#45;&gt;VaccinesModule</title>
<path fill="none" stroke="black" d="M203.78,-104C214.75,-104 222.43,-104 222.43,-104 222.43,-104 222.43,-140.89 222.43,-140.89"/>
<polygon fill="black" stroke="black" points="218.93,-140.89 222.43,-150.89 225.93,-140.89 218.93,-140.89"/>
</g>
</g>
</svg>
